Coordinates
version=1
nRows=31
nColumns=33
inDegrees=yes

Units are S.I. units (second, meters, Newtons, ...)
Angles are in degrees.

endheader
time	ground_thorax_rot_x	ground_thorax_rot_y	ground_thorax_rot_z	ground_thorax_tx	ground_thorax_ty	ground_thorax_tz	clav_prot_r	clav_elev_r	scapula_abduction_r	scapula_elevation_r	scapula_upward_rot_r	scapula_winging_r	shoulder_elv_r	plane_of_elev_r	axial_rot_r	elbow_flexion_r	pro_sup_r	wrist_flex_r	wrist_dev_r	clav_prot_l	clav_elev_l	scapula_abduction_l	scapula_elevation_l	scapula_upward_rot_l	scapula_winging_l	shoulder_elv_l	plane_of_elev_l	axial_rot_l	elbow_flexion_l	pro_sup_l	wrist_flex_l	wrist_dev_l	
9.7400	23.496032	35.658282	47.247345	-116.027637	793.372506	9.224731	14.307690	45.000000	45.000000	45.000000	45.000000	-2550.188333	-1602.019978	-90.000000	-100.861565	359.036164	-105.250577	18.504939	13.361348	11.316674	-45.000000	-41.041867	45.000000	-45.000000	816.649805	-2808.347675	19.608870	-59.388931	-349.497250	22.224465	7.563178	-20.223527	
9.7500	23.766286	35.469750	46.794046	-119.291727	794.205829	9.098335	14.267971	45.000000	45.000000	45.000000	45.000000	-2549.946047	-1602.017521	-90.000000	-100.849556	359.040673	-105.862700	18.563650	13.480883	11.369521	-45.000000	-41.082832	45.000000	-45.000000	816.813340	-2808.129791	19.727981	-59.062332	-349.460389	21.798331	7.543102	-20.237036	
9.7600	24.041596	35.270726	46.327650	-122.563510	795.046923	8.983081	14.228474	45.000000	45.000000	45.000000	45.000000	-2549.712877	-1602.020549	-90.000000	-100.832005	359.031986	-106.464087	18.634699	13.600959	11.412953	-45.000000	-41.125742	45.000000	-45.000000	816.975840	-2807.917328	19.847901	-58.730993	-349.432065	21.331560	7.527114	-20.244562	
9.7700	24.320859	35.061617	45.849747	-125.832607	795.898474	8.877113	14.189083	45.000000	45.000000	45.000000	45.000000	-2549.488027	-1602.027306	-90.000000	-100.810732	359.013553	-107.055813	18.714252	13.720828	11.449827	-45.000000	-41.169241	45.000000	-45.000000	817.137044	-2807.708737	19.968243	-58.397429	-349.409494	20.818777	7.516609	-20.247041	
9.7800	24.603892	34.841056	45.363461	-129.090337	796.763897	8.778425	14.149609	45.000000	45.000000	45.000000	45.000000	-2549.270301	-1602.040191	-90.000000	-100.783353	358.986057	-107.638744	18.795523	13.838823	11.483164	-45.000000	-41.206916	45.000000	-45.000000	817.294555	-2807.502230	20.087124	-58.055670	-349.395826	20.253827	7.511491	-20.243713	
9.7900	24.890005	34.609507	44.870914	-132.330049	797.646746	8.685190	14.110052	45.000000	45.000000	45.000000	45.000000	-2549.059031	-1602.058911	-90.000000	-100.750166	358.952484	-108.212843	18.878231	13.955674	11.514556	-45.000000	-41.240106	45.000000	-45.000000	817.448967	-2807.298923	20.202992	-57.711193	-349.388724	19.634269	7.512202	-20.235565	
9.8000	25.179304	34.366283	44.373344	-135.547981	798.550328	8.596057	14.070342	45.000000	45.000000	45.000000	45.000000	-2548.854610	-1602.082837	-90.000000	-100.711773	358.913628	-108.778222	18.957306	14.069357	11.544818	-45.000000	-41.266938	45.000000	-45.000000	817.597728	-2807.098132	20.312938	-57.362866	-349.390792	18.959755	7.518284	-20.222265	
9.8100	25.470389	34.114439	43.871008	-138.742368	799.477101	8.510337	14.030892	45.000000	45.000000	45.000000	45.000000	-2548.655485	-1602.107061	-90.000000	-100.673088	358.872691	-109.334818	19.037558	14.181630	11.571077	-45.000000	-41.293517	45.000000	-45.000000	817.741053	-2806.899934	20.418419	-57.018607	-349.396387	18.235776	7.529643	-20.206096	
9.8200	25.762711	33.854031	43.366214	-141.913262	800.428503	8.428008	13.991509	45.000000	45.000000	45.000000	45.000000	-2548.461519	-1602.130243	-90.000000	-100.635439	358.831508	-109.883132	19.113876	14.290498	11.595573	-45.000000	-41.317796	45.000000	-45.000000	817.879932	-2806.704695	20.518548	-56.686579	-349.405561	17.470974	7.543703	-20.187369	
9.8300	26.058273	33.586317	42.856351	-145.061341	801.404910	8.349504	13.952384	45.000000	45.000000	45.000000	45.000000	-2548.269822	-1602.149122	-90.000000	-100.602091	358.792471	-110.424187	19.187224	14.396592	11.616360	-45.000000	-41.341017	45.000000	-45.000000	818.014512	-2806.514035	20.615889	-56.367187	-349.416269	16.676185	7.558556	-20.167375	
9.8400	26.355806	33.310841	42.344289	-148.187311	802.405709	8.275401	13.913206	45.000000	45.000000	45.000000	45.000000	-2548.080937	-1602.162609	-90.000000	-100.574116	358.757325	-110.959934	19.251895	14.498339	11.637055	-45.000000	-41.358478	45.000000	-45.000000	818.146697	-2806.327313	20.709744	-56.062888	-349.429057	15.864320	7.571725	-20.146541	
9.8500	26.649396	33.031709	41.833786	-151.290986	803.429508	8.206024	13.874163	45.000000	45.000000	45.000000	45.000000	-2547.896455	-1602.166129	-90.000000	-100.556100	358.728068	-111.492940	19.314171	14.598768	11.655573	-45.000000	-41.375461	45.000000	-45.000000	818.279569	-2806.141501	20.801580	-55.774978	-349.436106	15.050383	7.583729	-20.128058	
9.8600	26.943091	32.747808	41.320228	-154.372076	804.474594	8.141108	13.834526	45.000000	45.000000	45.000000	45.000000	-2547.712822	-1602.163774	-90.000000	-100.543908	358.704133	-112.025311	19.364681	14.695314	11.675262	-45.000000	-41.386088	45.000000	-45.000000	818.408606	-2805.962061	20.891756	-55.499276	-349.447306	14.246734	7.590188	-20.109692	
9.8700	27.234374	32.460817	40.807942	-157.429888	805.539038	8.079604	13.793918	45.000000	45.000000	45.000000	45.000000	-2547.529517	-1602.156828	-90.000000	-100.536207	358.687157	-112.558135	19.405325	14.789892	11.696013	-45.000000	-41.391693	45.000000	-45.000000	818.537785	-2805.788623	20.978644	-55.237725	-349.457477	13.463880	7.591249	-20.093296	
9.8800	27.526548	32.168692	40.290920	-160.463833	806.620605	8.019694	13.751873	45.000000	45.000000	45.000000	45.000000	-2547.345368	-1602.148417	-90.000000	-100.529793	358.675115	-113.090789	19.434469	14.881897	11.718576	-45.000000	-41.389591	45.000000	-45.000000	818.661803	-2805.625764	21.062670	-54.982341	-349.476011	12.708466	7.584230	-20.076672	
9.8900	27.812248	31.875490	39.775627	-163.473188	807.716446	7.958972	13.708343	45.000000	45.000000	45.000000	45.000000	-2547.165925	-1602.135578	-90.000000	-100.527563	358.666984	-113.620459	19.460338	14.973280	11.742031	-45.000000	-41.385211	45.000000	-45.000000	818.784817	-2805.468970	21.142378	-54.738731	-349.494106	11.985285	7.569836	-20.062252	
9.9000	28.098228	31.578282	39.252457	-166.457843	808.823037	7.894774	13.662998	45.000000	45.000000	45.000000	45.000000	-2546.988995	-1602.120988	-90.000000	-100.526735	358.660156	-114.141613	19.479495	15.061200	11.767102	-45.000000	-41.374324	45.000000	-45.000000	818.899308	-2805.323380	21.217833	-54.501624	-349.523770	11.294021	7.544588	-20.046557	
9.9100	28.377730	31.279772	38.732081	-169.417727	809.935979	7.824560	13.616328	45.000000	45.000000	45.000000	45.000000	-2546.817445	-1602.099797	-90.000000	-100.532138	358.659241	-114.645849	19.503494	15.148810	11.792401	-45.000000	-41.360565	45.000000	-45.000000	819.016734	-2805.182434	21.286801	-54.288904	-349.548577	10.636564	7.512866	-20.034056	
9.9200	28.651764	30.977403	38.211438	-172.352749	811.050056	7.746327	13.569052	45.000000	45.000000	45.000000	45.000000	-2546.650775	-1602.070638	-90.000000	-100.545203	358.665365	-115.123833	19.539637	15.236910	11.815944	-45.000000	-41.343881	45.000000	-45.000000	819.137109	-2805.046108	21.350345	-54.107656	-349.569741	10.016142	7.477130	-20.024949	
9.9300	28.913726	30.674040	37.698208	-175.262360	812.159496	7.658917	13.522028	45.000000	45.000000	45.000000	45.000000	-2546.493492	-1602.030244	-90.000000	-100.569319	358.679852	-115.567435	19.596665	15.326309	11.835560	-45.000000	-41.328321	45.000000	-45.000000	819.266702	-2804.908136	21.407267	-53.968236	-349.575895	9.436105	7.440218	-20.022312	
9.9400	29.170295	30.366323	37.185446	-178.145672	813.258503	7.562224	13.475581	45.000000	45.000000	45.000000	45.000000	-2546.342181	-1601.985295	-90.000000	-100.597909	358.699332	-115.971652	19.669585	15.413211	11.851331	-45.000000	-41.310515	45.000000	-45.000000	819.400090	-2804.772274	21.457361	-53.870837	-349.576079	8.897609	7.400562	-20.023485	
9.9500	29.419764	30.054401	36.679057	-181.000893	814.341653	7.457261	13.430235	45.000000	45.000000	45.000000	45.000000	-2546.198918	-1601.938643	-90.000000	-100.628234	358.724193	-116.334814	19.758771	15.496850	11.863404	-45.000000	-41.289332	45.000000	-45.000000	819.542468	-2804.635826	21.498929	-53.821713	-349.562419	8.401439	7.359201	-20.030002	
9.9600	29.663307	29.736311	36.177437	-183.825146	815.404261	7.346120	13.386410	45.000000	45.000000	45.000000	45.000000	-2546.065426	-1601.895338	-90.000000	-100.655341	358.749682	-116.659596	19.861004	15.575226	11.873014	-45.000000	-41.263030	45.000000	-45.000000	819.692048	-2804.497689	21.532007	-53.820033	-349.537542	7.948046	7.316711	-20.040678	
9.9700	29.903475	29.412612	35.675310	-186.614451	816.442709	7.231794	13.344443	45.000000	45.000000	45.000000	45.000000	-2545.944545	-1601.858782	-90.000000	-100.675834	358.770150	-116.951818	19.969949	15.644989	11.879225	-45.000000	-41.231341	45.000000	-45.000000	819.840357	-2804.359855	21.556455	-53.849584	-349.509789	7.533266	7.269004	-20.052279	
9.9800	30.140856	29.083775	35.171405	-189.363904	817.454600	7.117872	13.304615	45.000000	45.000000	45.000000	45.000000	-2545.835615	-1601.833714	-90.000000	-100.684947	358.781617	-117.218578	20.082083	15.705087	11.880963	-45.000000	-41.195901	45.000000	-45.000000	819.984437	-2804.224041	21.571787	-53.907410	-349.482204	7.154644	7.213107	-20.063261	
9.9900	30.376767	28.750124	34.664304	-192.068258	818.438774	7.008093	13.267152	45.000000	45.000000	45.000000	45.000000	-2545.737684	-1601.823548	-90.000000	-100.679218	358.782286	-117.466363	20.192737	15.754363	11.877749	-45.000000	-41.154858	45.000000	-45.000000	820.120588	-2804.093176	21.579029	-53.985970	-349.460488	6.810168	7.146032	-20.071539	
10.0000	30.610398	28.412456	34.153409	-194.722009	819.394936	6.905883	13.232359	45.000000	45.000000	45.000000	45.000000	-2545.649240	-1601.830711	-90.000000	-100.656145	358.768409	-117.701335	20.301350	15.792650	11.866632	-45.000000	-41.111698	45.000000	-44.999999	820.245312	-2803.969181	21.577616	-54.072653	-349.446908	6.497694	7.065101	-20.075962	
10.0100	30.840410	28.072913	33.644305	-197.320250	820.323429	6.813888	13.200249	45.000000	45.000000	45.000000	45.000000	-2545.569406	-1601.854075	-90.000000	-100.616848	358.742027	-117.927108	20.407736	15.821236	11.851068	-45.000000	-41.065207	45.000000	-44.999999	820.364214	-2803.850531	21.567834	-54.187345	-349.435550	6.221371	6.975356	-20.078221	
10.0200	31.067589	27.732120	33.134972	-199.858651	821.224849	6.733725	13.171093	45.000000	45.000000	45.000000	45.000000	-2545.496643	-1601.891588	-90.000000	-100.563378	358.702418	-118.145733	20.512940	15.840205	11.828996	-45.000000	-41.016121	45.000000	-44.999998	820.474678	-2803.737918	21.552091	-54.311457	-349.427969	5.980385	6.877526	-20.077502	
10.0300	31.287489	27.392819	32.637057	-202.334018	822.099913	6.665889	13.144749	45.000000	45.000000	45.000000	45.000000	-2545.431937	-1601.937021	-90.000000	-100.502050	358.655577	-118.356022	20.618856	15.851511	11.806350	-45.000000	-40.960153	45.000000	-44.999997	820.589249	-2803.625370	21.532614	-54.473794	-349.413885	5.781634	6.778010	-20.076922	
10.0400	31.503758	27.053820	32.141765	-204.743901	822.949301	6.610002	13.121436	45.000000	45.000000	45.000000	45.000000	-2545.372220	-1601.985937	-90.000000	-100.437329	358.603385	-118.556072	20.726854	15.854929	11.778040	-45.000000	-40.902444	45.000000	-44.999994	820.698499	-2803.517285	21.510475	-54.638827	-349.400359	5.622313	6.674808	-20.074236	
